<?xml version="1.0" encoding="utf-8"?>
<!-- Generator: Adobe Illustrator 26.3.1, SVG Export Plug-In . SVG Version: 6.00 Build 0)  -->
<svg version="1.1" id="Layer_1" xmlns="http://www.w3.org/2000/svg" xmlns:xlink="http://www.w3.org/1999/xlink" x="0px" y="0px"
	 viewBox="0 0 1080 1080" style="enable-background:new 0 0 1080 1080;" xml:space="preserve">
<style type="text/css">
	.st0{fill:#FFFFFF;}
	.st1{fill:#F5A017;}
	.st2{fill:none;}
</style>
<g>
	<g>
		<g>
			<path class="st0" d="M262.3,377c-18.1-16.9-44.5-24.5-80.8-24.5h-8.7c16.8,5.1,43.8,15.9,57.5,35.7c0,0,0.1,0.1,0.1,0.2
				c0.6,1,1.3,2.1,2,3.1c0.5,0.9,1,2,1.5,2.9c6.6,12.8,10.1,29.8,10.1,48.4c0,53.4-22.1,79.9-60.2,79.9c-20.6,0-25.7-6.8-25.7-26.8
				V383.2l0.2-30.7H94.8V363c20.9,1.6,24,3.9,24,27.6v107.2c0,23.5-2.5,26-24.1,27.7V536h77.7c32.2,0,59-7.9,79.8-23.7
				c21.8-16.5,35.3-41.3,35.3-73.8C287.7,410.1,276.6,390.4,262.3,377z"/>
			<path class="st0" d="M455.1,524c-10.1-2.5-13.5-8-21.8-28.9c-18.3-47.2-37.5-97.5-55.6-146.6l-13.6,2.6L351.4,383l6.6,18.2
				l21.8,59.7h-44.9v-0.1H320L305.4,497c-9.5,23.7-14,26.2-31.9,28.5V536h69.7v-10.5c-22.3-2-29-4.3-23.1-22
				c2.9-8.9,6.8-19.6,9.9-28.3h55c4.3,11.3,8.7,24,11.6,32.5c3.9,12.2,3.9,15.3-13.8,17.8V536h81.8v-10.5
				C460.9,525.1,457.7,524.7,455.1,524z"/>
			<path class="st0" d="M627.7,524c-10.1-2.5-13.5-8-21.8-28.9c-18.3-47.2-37.5-97.5-55.6-146.6l-13.6,2.6L524,383l6.6,18.2
				l21.8,59.7h-44.9v-0.1h-14.8L478,497c-9.5,23.7-14,26.2-31.9,28.5V536h69.7v-10.5c-22.3-2-29-4.3-23.1-22
				c2.9-8.9,6.8-19.6,9.9-28.3h55c4.3,11.3,8.7,24,11.6,32.5c3.9,12.2,3.9,15.3-13.8,17.8V536h81.8v-10.5
				C633.4,525.1,630.3,524.7,627.7,524z"/>
			<path class="st0" d="M760.8,352c-3.9,0.2-13.9,0.5-43.5,0.5h-3.5c8,3.8,17,9.4,24.6,18.1c0.5,0.5,1,1.3,1.6,2
				c0.1,0.1,0.2,0.2,0.4,0.3c1.2,1.3,2.4,3,3.6,4.8c0.1,0.2,0.1,0.3,0.2,0.4c3.5,5.8,6.6,14,8.4,21.1l1.4-0.3h0.2l9.5-1.3
				C762.6,380.2,761.2,357,760.8,352z M734.1,522.9c-2.5,0.3-5.4,0.4-8.8,0.4h-20c-17.5-0.3-18.1-6.2-18.1-25.7V449h27.4
				c16.3,0,18.6,3.4,23.1,24.3h11v-63h-11c-4.2,20.1-7,24.4-22.9,24.4h-27.5v-82.2h-61.6V363c19.2,1.5,22.5,3.3,22.5,27.4v107.8
				c0,20-1.3,24.2-17.2,26.5c0,0,0,0-0.1,0c-2.9,0.5-6.2,0.8-10.1,1.1v10.3h146.4c0.8-2.5,8.4-7.2,10-13L734.1,522.9z"/>
			<path class="st0" d="M979.8,495.9l-2.3-105.9c-0.6-22.5,2-24.9,24.6-27v-10.5h-59.6l-0.1,0.3l-1.3,143c0,2.1,0,3.9-0.1,5.6
				c-0.2,20.1-3.1,22-22.8,24v10.5h85.8v-10.5C981.2,522.5,980.1,521.3,979.8,495.9z M780.3,352.6v10.5c2.3,0.3,3,1.5,4.8,2.1
				c3.3,1.2,7.5,2.8,10.1,6.3c4,5.3,2.7,12.3,2.4,14.8c-6.4,93.2-7.6,109.3-8.7,117.7c-2.3,17-9.5,20.1-25.7,21.5v10.5h70v-10.5
				c-21.2-2-26.8-6-27-21.2c0-10.1,0-27.7,3.7-116.3c20.2,49.4,40.4,101.9,58.7,148h9.3c5.6-13.3,11.5-27.3,17.4-41.3l-62.4-142.2
				L780.3,352.6z"/>
			<path class="st0" d="M754.1,398.9H754l-1.4,0.2c-1.8-7.1-5-15.2-8.4-21.1C747.7,383.1,751.4,390,754.1,398.9z"/>
			<path class="st1" d="M472.8,351.3c0.4,4.2,0.4,9.6-0.9,15.6c-4.1,17.9-17.6,28-22.1,31.1l-0.2-0.5
				C443.2,378.3,453.6,357.6,472.8,351.3L472.8,351.3z"/>
			<polyline class="st0" points="894.9,494.9 936.6,399.4 884.5,486.8 			"/>
			<polygon class="st0" points="320,460.8 342.1,405.6 334.9,461 			"/>
			<polygon class="st0" points="492.5,461 514.6,405.8 507.5,460.9 			"/>
			<polygon class="st0" points="157.9,423.6 158.1,386.2 158.1,423.5 			"/>
			<path class="st0" d="M233.9,394.4h-0.1c-0.5-0.9-1-2-1.5-2.9C232.9,392.5,233.5,393.5,233.9,394.4z"/>
		</g>
		<g>
			<path class="st2" d="M746.5,691.6c-1.7-1.7-3.8-3.1-6.2-4.1c-2.4-1-5-1.5-7.9-1.5c-2.7,0-5.3,0.5-7.6,1.5c-2.4,1-4.3,2.4-6,4.2
				c-1.7,1.7-3,3.8-4,6.2c-1,2.4-1.4,4.9-1.4,7.6c0,2.7,0.4,5.2,1.4,7.5c1,2.4,2.3,4.4,4,6.1c1.7,1.7,3.7,3,6,4.1
				c2.4,1,4.8,1.5,7.5,1.5c2.7,0,5.3-0.5,7.6-1.4c2.4-1,4.5-2.3,6.3-4c1.8-1.7,3.2-3.7,4.2-6.1c1-2.4,1.5-4.8,1.5-7.6
				s-0.5-5.4-1.4-7.8C749.6,695.4,748.2,693.3,746.5,691.6z"/>
			<polygon class="st0" points="853.3,682.6 853.1,682.6 853.1,682.7 			"/>
			<path class="st0" d="M882.9,703.3c-1.1-3-1.7-6.5-1.7-10.3c0-2.7,0.4-5.1,1.4-7.3c0.8-2.3,2.4-4.3,4.5-6.1
				c3.2-2.7,7.5-4.1,13-4.1c2.8,0,5.6,0.6,8.7,1.5c3,1,5.8,2.2,8.4,3.7l5.6-15.1c-4-2.1-8.1-3.7-12.1-4.8c-4-1.2-8.2-1.7-12.7-1.7
				c-4.3,0-8.3,0.6-12,1.8s-6.9,2.9-9.7,5.2c-3.5,2.8-6.3,6.4-8.5,10.7h0.1l-0.1,0.1c-2.2,4.3-3.3,9.3-3.3,15
				c0,3.8,0.6,7.4,1.5,10.7c1,3.2,2.1,6.3,3.5,9c0,0,0,0.1,0.1,0.1v0.1h-0.1l-26.3,11.7l9-11.7h-8.4V683l0.2-17.1l0.2-22.1v-2.5
				c0.1-8.9,1.4-9.8,10.2-10.7V626h-38.1v4.6c7.9,1.1,10,1.7,10.5,7.2c0.2,1.5,0.2,3.5,0.2,6l0.1,5.1v79.3h98.4v-16.7h-37.8
				C885.6,709.1,884,706.3,882.9,703.3z"/>
			<path class="st0" d="M984.4,716.4c0-0.5-0.1-1.1-0.1-1.7v-20.6c0-3.1-0.2-6.1-0.7-8.9l0-1.2c-0.2-1.3-0.5-2.5-0.7-3.7
				c-1-4.2-2.8-7.6-5.4-10.3c-2.9-3-6.2-5.2-10-6.6v0.1c0,0-0.1,0-0.1,0c-0.2-0.1-0.4-0.2-0.6-0.2c-4-1.4-8.8-2.1-14.2-2.1h-5.5
				v16.7h7.1c2.1,0,4.1,0.5,5.9,1.3c1.8,0.8,3.2,1.9,4.2,3.3c1.1,1.3,1.9,2.9,2.4,4.7c0.1,0.4,0.2,0.8,0.3,1.3
				c0,0.2,0.1,0.5,0.1,0.7l-0.2,21.4v1c0,0,0,0,0,0.1h-32v16.7h21.9v0h38v-4.6C987,722.5,984.9,722,984.4,716.4z"/>
			<path class="st0" d="M782.5,662.3c7.9,1.1,10,1.7,10.5,7.2c0.1,1.5,0.2,3.5,0.2,6l0.4,17.2v18.8h-0.2l-26.3,11.7l9-11.7h-7.9
				c0.2-0.9,0.3-1.9,0.4-2.8c0.1-0.9,0.1-1.9,0.1-3c0-5.2-0.9-9.9-2.8-14.4c-1.9-4.4-4.5-8.3-7.8-11.5c-3.3-3.3-7.1-5.8-11.5-7.7
				s-9.1-2.8-14.1-2.8c-4.4,0-8.6,0.7-12.5,2.3c-4,1.5-7.5,3.7-10.6,6.4c-3.2,2.7-5.8,6-7.8,9.7s-3.4,7.7-4.2,12
				c-1.6,0-3.3,0.2-5.1,0.6c-1.8,0.4-3.6,1-5.4,1.7c-1.8,0.7-3.5,1.7-5.1,2.7c-1,0.6-1.9,1.4-2.7,2.1v0.1c-0.6,0.5-1.1,1-1.7,1.6
				c-3,3.3-5.2,7.2-6.6,11.8c-0.9,2.8-1.5,5.9-1.8,9.3l-0.1,0.1v0.5c-0.2,1.9-0.3,4-0.3,6.1v16.5c-0.4,6.2-2.4,6.9-10,7.7v4.7h38
				v-4.7c-7.9-1-10-1.6-10.5-7.2c-0.1-1.5-0.2-3.5-0.2-6l-0.4-15.8c0.1-1.2,0.3-2.5,0.6-3.7c0.5-2.7,1.4-5,2.8-6.8
				c2-2.8,5.3-4.4,9.7-4.8c1.1,3.6,2.7,6.9,5,9.9c2.2,3.1,4.7,5.7,7.7,7.9s6.3,4,9.9,5.3s7.4,1.9,11.3,1.9c5.6,0,10.8-1.2,15.7-3.5
				c4.8-2.4,9-5.5,12.3-9.6h49.9v-42.9l0.1-9.8v-1c0-0.5,0-1,0.1-1.4c0.1-8.9,1.4-9.8,10.1-10.7v-4.6h-38L782.5,662.3L782.5,662.3z
				 M750.5,713.2c-1,2.4-2.4,4.4-4.2,6.1c-1.8,1.7-3.8,3-6.3,4c-2.4,0.9-4.9,1.4-7.6,1.4c-2.7,0-5.1-0.5-7.5-1.5
				c-2.3-1-4.3-2.4-6-4.1c-1.7-1.7-3-3.7-4-6.1c-1-2.3-1.4-4.8-1.4-7.5c0-2.7,0.4-5.3,1.4-7.6c1-2.4,2.3-4.5,4-6.2
				c1.6-1.7,3.6-3.2,6-4.2c2.2-1,4.8-1.5,7.6-1.5c2.8,0,5.5,0.4,7.9,1.5c2.4,1,4.5,2.4,6.2,4.1c1.7,1.7,3.1,3.8,4,6.2
				c0.9,2.4,1.4,5,1.4,7.8C752,708.3,751.5,710.8,750.5,713.2z"/>
			<path class="st1" d="M811.6,638.3h-16.4v-3.2c0-1.9,0.5-3.4,1.4-4.4c1-1,2.6-1.5,5-1.5h6.2v-5.4h-7.1c-4.7,0-8.4,1.1-11,3.3
				c-2.7,2.2-4,6-4,11.5v8.7h25.9L811.6,638.3L811.6,638.3z"/>
			<path class="st0" d="M867.8,676.7C867.8,676.7,867.8,676.7,867.8,676.7C867.8,676.7,867.8,676.7,867.8,676.7L867.8,676.7z"/>
			<path class="st0" d="M867.8,676.7C867.8,676.7,867.8,676.7,867.8,676.7L867.8,676.7L867.8,676.7z"/>
			<path class="st2" d="M498.4,686.6c-1-1.4-2.6-2.6-4.5-3.6c-1.9-0.9-4-1.4-6.3-1.4h-40.5v29.6h54.7v-13c0-2.5-0.2-4.8-0.8-6.6
				C500.5,689.7,499.6,688,498.4,686.6z"/>
			<path class="st0" d="M172.8,711.2h-1.1l-26.5,11.8l9.1-11.8h-17c-3.9,0-7.4-0.3-10.7-0.9c-3.3-0.7-6.1-2-8.3-3.8
				c-1.9-1.7-3.3-3.8-4.1-6.6c-0.9-2.6-1.2-5.8-1.2-9.7v-21.8H95.3v24c0,5.2,0.7,10,1.9,14.8s3.5,8.5,6.6,11.5
				c1.9,1.9,4,3.5,6.1,4.8c2.2,1.3,4.5,2.4,7.1,3.2c2.7,0.9,5.5,1.5,8.6,1.9c3.1,0.4,6.5,0.6,10.3,0.6h54.6v-71.3h-17.8L172.8,711.2
				L172.8,711.2z"/>
			<path class="st1" d="M104,653.6c2.7,0,5-0.8,6.9-2.4c1.9-1.5,3-3.8,3-6.7c0-2.7-1-4.9-2.9-6.5c-1.9-1.7-4.3-2.5-7-2.5
				c-2.8,0-5.2,0.8-7.1,2.5c-1.9,1.7-2.8,3.8-2.8,6.5c0,3,1,5.2,2.9,6.7C99,652.8,101.3,653.6,104,653.6z"/>
			<path class="st1" d="M131.5,653.6c2.7,0,5-0.8,6.9-2.4c1.9-1.5,3-3.8,3-6.7c0-2.7-1-4.9-2.8-6.5c-1.9-1.7-4.2-2.5-7.1-2.5
				c-2.8,0-5.2,0.8-7.1,2.5c-1.9,1.7-2.8,3.8-2.8,6.5c0,3,1,5.2,2.9,6.7C126.5,652.8,128.8,653.6,131.5,653.6z"/>
			<path class="st0" d="M232.7,711.3l0-4.2l0.1-10.9v-6.8l0.1-9.5l0.1-9.5l0.1-17.7l0.1-6.9v-2.8c0.1-9.9,1.6-10.9,11.3-11.9v-5.1
				h-42.2v5.1c8.8,1.2,11.1,1.9,11.7,8c0.2,1.7,0.3,3.8,0.3,6.6l0.1,5.6V729h0.4h17.8h3.1l0.1-17.8L232.7,711.3L232.7,711.3z"/>
			<path class="st0" d="M274.4,702.5c-1.2-3.2-1.8-6.9-1.8-10.9c0-2.8,0.5-5.4,1.4-7.8c0.9-2.4,2.5-4.5,4.8-6.5
				c3.4-2.8,8-4.3,13.8-4.3c3,0,6.1,0.5,9.3,1.6c3.3,1,6.3,2.3,9,3.8l6-16.1c-4.3-2.2-8.6-3.9-12.9-5.2s-8.8-1.8-13.6-1.8
				c-4.5,0-8.8,0.6-12.7,1.9c-3.9,1.3-7.4,3.2-10.3,5.6c-3.7,3.1-6.7,6.9-9.1,11.4c-2.3,4.6-3.5,9.9-3.5,16c0,4.1,0.5,7.9,1.6,11.4
				c1,3.6,2.3,6.8,3.7,9.8h-11.3h-2.6h-10.5l-0.1,17.8h10.6h2.6h70.8v-17.8h-40.2C277.2,708.7,275.6,705.8,274.4,702.5z"/>
			<path class="st1" d="M396.5,646.9c2.8,0,5.2-0.8,7.3-2.4c2.1-1.7,3.1-4,3.1-7.1c0-2.8-1-5.1-3-6.8c-2-1.7-4.5-2.6-7.4-2.6
				s-5.4,0.9-7.4,2.6c-2,1.7-3,4-3,6.8c0,3.1,1,5.4,3.1,7.1C391.2,646,393.7,646.9,396.5,646.9z"/>
			<path class="st0" d="M519.6,699c0-5.3-0.6-10-1.6-14.5c-1.1-4.5-3-8.1-5.7-11c-3.3-3.3-7.1-5.8-11.3-7.3
				c-4.3-1.5-9.4-2.2-15.2-2.2h-38.7v-6.3h-17.7v53.6h-23.6v-53.6h-17.7v53.6H388l-26.5,11.8l9-11.8h-11.3v-4.2l0.1-10.9v-6.8
				l0.1-9.5l0.1-9.5l0.1-17.7l0.1-6.9v-2.8c0.1-9.9,1.6-10.8,11.3-11.9v-5.1h-42.2v5.1c8.8,1.2,11,1.9,11.6,8.1
				c0.2,1.7,0.3,3.8,0.3,6.6l0.1,5.6v77.5h162.4l16.4-19.1L519.6,699L519.6,699z M501.9,711.2h-54.7v-29.6h40.5
				c2.3,0,4.4,0.5,6.3,1.4c1.9,1,3.5,2.2,4.5,3.6c1.2,1.4,2.1,3.1,2.7,5c0.6,1.9,0.8,4.2,0.8,6.6L501.9,711.2L501.9,711.2z"/>
			<path class="st0" d="M585.8,631.2c8.8,1.2,11.1,1.9,11.7,8.1c0.2,1.7,0.2,3.8,0.2,6.6l0.2,5.6v59.8l-0.9,0.2l-26.5,11.8l9.2-12
				h-18.5V666l0.1-13.3l0.1-6.9V643c0.1-9.9,1.5-10.8,11.3-11.9v-5.1h-42.3v5.1c8.8,1.2,11.1,1.9,11.7,8.1c0.2,1.7,0.2,3.8,0.2,6.6
				l0.1,5.6v59.8l-0.1,0.2l-26.5,11.8l9.2-12h-5.5v-1.3L503.3,729h58.2v0.1h66.5v-5.1c-8.7-1.2-11.1-1.8-11.7-7.9v-0.1l0.1-8.9
				l0.1-10.9v-11.1l0.1-5.2l0.1-9.5l0.2-17.7l0.1-6.9V643c0.1-9.9,1.5-10.8,11.3-11.9v-5.1h-42.3V631.2z"/>
		</g>
		<path class="st0" d="M201.4,656.6v4.7c-9,0.9-10.4,1.8-10.5,11v2.7l-0.1,6.4l-0.2,16.4l-0.1,8.8l-0.1,8.8l-0.4,10.3l0,0l-16.5,0.5
			l-0.3-46.1l-0.1-5.2c0-2.7-0.1-4.6-0.3-6.2c-0.6-5.8-2.7-6.3-10.9-7.5v-4.7L201.4,656.6L201.4,656.6z"/>
		<path class="st0" d="M416.4,656.9v4.7c-9,0.9-10.4,1.8-10.5,11v2.7l-0.1,6.4l-0.2,16.4l-0.1,8.8l-0.1,8.8l-0.4,10.3l-0.2,1.7
			h-16.6v-47.3l-0.1-5.2c0-2.7-0.1-4.6-0.3-6.2c-0.6-5.8-2.7-6.3-11-7.5v-4.7L416.4,656.9L416.4,656.9z"/>
	</g>
</g>
</svg>
