<?xml version="1.0" encoding="utf-8"?>
<!-- Generator: Adobe Illustrator 26.3.1, SVG Export Plug-In . SVG Version: 6.00 Build 0)  -->
<svg version="1.1" id="Layer_1" xmlns="http://www.w3.org/2000/svg" xmlns:xlink="http://www.w3.org/1999/xlink" x="0px" y="0px"
	 viewBox="0 0 1080 1080" style="enable-background:new 0 0 1080 1080;" xml:space="preserve">
<style type="text/css">
	.st0{fill:#151515;}
	.st1{fill:#F5A017;}
	.st2{fill:none;}
	.st3{fill:#191919;}
</style>
<g>
	<g>
		<g>
			<path class="st0" d="M262.26,377.03c-18.06-16.91-44.53-24.51-80.77-24.51h-8.74c16.8,5.06,43.84,15.88,57.53,35.67
				c0,0,0.12,0.12,0.12,0.23c0.58,1.04,1.27,2.07,1.96,3.11c0.46,0.92,1.04,1.96,1.5,2.88c6.56,12.77,10.12,29.8,10.12,48.44
				c0,53.39-22.09,79.85-60.18,79.85c-20.6,0-25.66-6.79-25.66-26.81V383.25l0.23-30.72H94.85V363
				c20.94,1.61,24.05,3.91,24.05,27.61v107.23c0,23.47-2.53,26-24.05,27.73v10.47h77.66c32.22,0,59.02-7.94,79.85-23.7
				c21.75-16.45,35.32-41.31,35.32-73.75C287.69,410.06,276.64,390.38,262.26,377.03z"/>
			<path class="st0" d="M455.1,523.96c-10.13-2.53-13.46-8.05-21.75-28.88c-18.29-47.17-37.51-97.45-55.57-146.58l-13.58,2.65
				l-12.77,31.87l6.56,18.18l21.75,59.72h-44.87v-0.12h-14.84l-14.61,36.24c-9.55,23.7-14.04,26.23-31.87,28.53v10.47h69.73v-10.47
				c-22.32-1.96-28.99-4.26-23.13-21.98c2.88-8.86,6.79-19.56,9.89-28.3h55c4.26,11.28,8.74,24.05,11.62,32.45
				c3.91,12.2,3.91,15.3-13.81,17.83v10.47h81.81v-10.47C460.85,525.11,457.74,524.65,455.1,523.96z"/>
			<path class="st0" d="M627.68,523.96c-10.13-2.53-13.46-8.05-21.75-28.88c-18.29-47.17-37.51-97.45-55.57-146.58l-13.58,2.65
				l-12.77,31.87l6.56,18.18l21.75,59.72h-44.87v-0.12H492.6l-14.61,36.24c-9.55,23.7-14.04,26.23-31.87,28.53v10.47h69.73v-10.47
				c-22.32-1.96-28.99-4.26-23.13-21.98c2.88-8.86,6.79-19.56,9.89-28.3h55c4.26,11.28,8.74,24.05,11.62,32.45
				c3.91,12.2,3.91,15.3-13.81,17.83v10.47h81.81v-10.47C633.44,525.11,630.33,524.65,627.68,523.96z"/>
			<path class="st0" d="M760.83,351.97c-3.92,0.18-13.87,0.55-43.52,0.55h-3.47c8.03,3.83,16.97,9.4,24.63,18.06
				c0.46,0.55,1,1.28,1.64,2.01c0.09,0.09,0.18,0.18,0.36,0.27c1.19,1.28,2.37,3.01,3.56,4.84c0.09,0.18,0.09,0.27,0.18,0.36
				c3.47,5.84,6.57,13.96,8.39,21.07l1.37-0.27h0.18l9.49-1.28C762.56,380.16,761.19,356.99,760.83,351.97z M734.1,522.94
				c-2.46,0.27-5.38,0.36-8.85,0.36h-19.98c-17.52-0.27-18.06-6.2-18.06-25.73v-48.53h27.37c16.33,0,18.61,3.38,23.08,24.27h11.04
				v-62.95h-11.04c-4.2,20.07-7.02,24.36-22.9,24.36h-27.55v-82.2h-61.58v10.49c19.16,1.55,22.53,3.28,22.53,27.37v107.83
				c0,19.98-1.28,24.18-17.15,26.46c0,0,0,0-0.09,0c-2.92,0.46-6.2,0.82-10.13,1.09v10.31h146.42c0.82-2.55,8.42-7.21,9.97-12.95
				L734.1,522.94z"/>
			<path class="st0" d="M979.84,495.92l-2.3-105.85c-0.58-22.55,1.96-24.85,24.62-27.04v-10.47h-59.6l-0.12,0.34l-1.27,143.02
				c0,2.07,0,3.91-0.12,5.64c-0.23,20.14-3.11,21.98-22.78,24.05v10.47h85.83V525.6C981.22,522.5,980.07,521.35,979.84,495.92z
				 M780.34,352.62v10.47c2.26,0.29,2.98,1.46,4.82,2.13c3.35,1.22,7.48,2.76,10.13,6.33c4.03,5.29,2.65,12.31,2.42,14.84
				c-6.44,93.2-7.59,109.31-8.74,117.7c-2.3,17.03-9.55,20.14-25.66,21.52v10.47h69.96V525.6c-21.17-1.96-26.81-5.98-27.04-21.17
				c0-10.13,0-27.73,3.68-116.32c20.25,49.36,40.38,101.94,58.68,147.97h9.32c5.64-13.35,11.51-27.27,17.37-41.31l-62.36-142.21
				L780.34,352.62z"/>
			<path class="st0" d="M754.13,398.9h-0.12l-1.38,0.23c-1.84-7.13-4.95-15.19-8.4-21.06C747.69,383.13,751.37,390.04,754.13,398.9z
				"/>
			<path class="st1" d="M472.82,351.3c0.43,4.23,0.44,9.62-0.94,15.62c-4.12,17.9-17.57,27.99-22.08,31.08l-0.18-0.52
				C443.17,378.31,453.59,357.56,472.82,351.3L472.82,351.3z"/>
			<polyline class="st0" points="894.91,494.93 936.61,399.38 884.47,486.78 			"/>
			<polygon class="st0" points="320.02,460.8 342.13,405.62 334.85,461.01 			"/>
			<polygon class="st0" points="492.52,460.98 514.63,405.8 507.45,460.91 			"/>
			<polygon class="st0" points="157.9,423.63 158.13,386.24 158.13,423.52 			"/>
			<path class="st0" d="M233.95,394.41h-0.11c-0.46-0.92-1.04-1.96-1.5-2.88C232.92,392.45,233.49,393.49,233.95,394.41z"/>
		</g>
		<g>
			<path class="st2" d="M746.5,691.59c-1.74-1.74-3.84-3.1-6.2-4.09c-2.36-1.05-5.02-1.49-7.87-1.49c-2.73,0-5.33,0.5-7.56,1.55
				c-2.36,0.99-4.34,2.42-5.95,4.15c-1.67,1.74-2.98,3.78-3.97,6.2c-0.99,2.36-1.43,4.9-1.43,7.62c0,2.67,0.43,5.21,1.43,7.5
				c0.99,2.36,2.29,4.4,3.97,6.07c1.74,1.74,3.72,3.04,6.01,4.09c2.36,0.99,4.84,1.49,7.5,1.49c2.73,0,5.27-0.5,7.62-1.43
				c2.42-0.99,4.46-2.29,6.26-4.03c1.8-1.67,3.16-3.72,4.15-6.07c0.99-2.36,1.49-4.83,1.49-7.62c0-2.79-0.5-5.39-1.43-7.75
				C749.6,695.37,748.23,693.32,746.5,691.59z"/>
			<polygon class="st3" points="853.27,682.6 853.06,682.6 853.06,682.67 			"/>
			<path class="st0" d="M882.93,703.3c-1.12-3.04-1.67-6.51-1.67-10.29c0-2.67,0.43-5.08,1.36-7.31c0.81-2.29,2.36-4.34,4.46-6.14
				c3.16-2.67,7.5-4.09,13.02-4.09c2.79,0,5.64,0.56,8.74,1.49c3.04,1.05,5.83,2.23,8.37,3.66l5.58-15.06
				c-4.03-2.11-8.06-3.72-12.09-4.83c-3.97-1.18-8.18-1.74-12.65-1.74c-4.28,0-8.31,0.62-11.96,1.8s-6.94,2.91-9.73,5.21
				c-3.45,2.84-6.29,6.42-8.51,10.66h0.08l-0.12,0.06c-2.23,4.28-3.35,9.3-3.35,15c0,3.78,0.56,7.38,1.49,10.72
				c1.05,3.22,2.11,6.26,3.47,8.99c0,0,0,0.06,0.06,0.06v0.06h-0.12l-26.28,11.71l8.99-11.71h-8.43v-28.51l0.19-17.11L844,643.8
				v-2.48c0.12-8.93,1.43-9.79,10.17-10.72v-4.59h-38.06v4.59c7.93,1.12,9.98,1.67,10.54,7.25c0.19,1.55,0.25,3.47,0.25,5.95
				l0.06,5.08v79.34h98.37v-16.67h-37.75C885.6,709.13,884.05,706.34,882.93,703.3z"/>
			<path class="st0" d="M984.38,716.42c-0.05-0.51-0.08-1.13-0.11-1.72v-20.6c0-3.13-0.24-6.09-0.65-8.9l-0.02-1.18
				c-0.22-1.27-0.45-2.46-0.74-3.65c-1.04-4.17-2.83-7.59-5.39-10.3c-2.86-3.01-6.17-5.21-10.01-6.62l0,0.12
				c-0.04-0.01-0.07-0.03-0.11-0.05c-0.19-0.07-0.37-0.15-0.56-0.22c-4.05-1.38-8.78-2.08-14.17-2.08h-5.47v16.66h7.14
				c2.12,0,4.09,0.45,5.88,1.26c1.79,0.82,3.2,1.93,4.24,3.27c1.12,1.34,1.9,2.9,2.42,4.69c0.11,0.41,0.22,0.82,0.3,1.26
				c0.05,0.21,0.06,0.45,0.1,0.66l-0.18,21.44v1.04c0,0.02,0,0.04,0,0.07h-32.01v16.66h21.86v0.01h38.02v-4.61
				C986.99,722.55,984.94,722,984.38,716.42z"/>
			<path class="st0" d="M782.51,662.33c7.93,1.12,9.98,1.67,10.54,7.25c0.12,1.55,0.19,3.47,0.19,5.95l0.37,17.23v18.78h-0.25
				l-26.28,11.71l8.99-11.71h-7.93c0.19-0.93,0.31-1.86,0.37-2.85c0.06-0.93,0.12-1.92,0.12-2.98c0-5.15-0.93-9.92-2.79-14.38
				c-1.86-4.4-4.46-8.31-7.75-11.53c-3.29-3.29-7.13-5.83-11.53-7.69c-4.4-1.86-9.11-2.79-14.13-2.79c-4.4,0-8.62,0.74-12.52,2.29
				c-3.97,1.55-7.5,3.66-10.6,6.38c-3.16,2.67-5.76,5.95-7.81,9.67c-2.05,3.72-3.41,7.69-4.15,11.96c-1.61,0-3.29,0.19-5.14,0.62
				c-1.8,0.43-3.6,0.99-5.39,1.74c-1.8,0.74-3.53,1.67-5.08,2.73c-0.99,0.62-1.86,1.36-2.73,2.11v0.06
				c-0.62,0.5-1.12,0.99-1.67,1.61c-2.98,3.29-5.21,7.25-6.63,11.78c-0.87,2.79-1.49,5.89-1.8,9.3l-0.06,0.12v0.5
				c-0.19,1.92-0.31,3.97-0.31,6.14v16.49c-0.43,6.2-2.36,6.88-9.98,7.69v4.65h38v-4.65c-7.93-1.05-9.98-1.61-10.54-7.19
				c-0.12-1.55-0.19-3.53-0.19-5.95l-0.37-15.81c0.12-1.24,0.31-2.48,0.56-3.72c0.5-2.67,1.43-4.96,2.79-6.76
				c2.05-2.85,5.27-4.4,9.73-4.77c1.12,3.6,2.73,6.88,4.96,9.92c2.17,3.1,4.71,5.7,7.69,7.93c2.98,2.23,6.32,4.03,9.92,5.27
				c3.6,1.24,7.38,1.92,11.34,1.92c5.58,0,10.79-1.18,15.68-3.53c4.83-2.36,8.99-5.52,12.27-9.61h49.9v-42.89l0.06-9.79v-1.05
				c0-0.5,0-0.99,0.06-1.43c0.12-8.93,1.36-9.79,10.1-10.72v-4.59h-38V662.33z M750.47,713.16c-0.99,2.36-2.36,4.4-4.15,6.07
				c-1.8,1.74-3.84,3.04-6.26,4.03c-2.36,0.93-4.9,1.43-7.62,1.43c-2.66,0-5.14-0.5-7.5-1.49c-2.29-1.05-4.28-2.36-6.01-4.09
				c-1.67-1.67-2.98-3.72-3.97-6.07c-0.99-2.29-1.43-4.83-1.43-7.5c0-2.73,0.43-5.27,1.43-7.62c0.99-2.42,2.29-4.46,3.97-6.2
				c1.61-1.74,3.6-3.16,5.95-4.15c2.23-1.05,4.83-1.55,7.56-1.55c2.85,0,5.52,0.43,7.87,1.49c2.36,0.99,4.46,2.36,6.2,4.09
				c1.74,1.74,3.1,3.78,4.03,6.2c0.93,2.36,1.43,4.96,1.43,7.75C751.95,708.33,751.46,710.8,750.47,713.16z"/>
			<path class="st1" d="M811.64,638.3h-16.4v-3.2c0-1.9,0.45-3.38,1.41-4.43c0.97-1,2.6-1.52,4.98-1.52h6.21v-5.36h-7.14
				c-4.69,0-8.37,1.12-11.01,3.31c-2.68,2.23-3.98,6.03-3.98,11.46v8.67h25.93V638.3z"/>
			<path class="st3" d="M867.75,676.65c0,0,0,0.06,0.06,0.06c0.01-0.02,0.03-0.04,0.04-0.06H867.75z"/>
			<path class="st3" d="M867.85,676.65c-0.01,0.02-0.03,0.04-0.04,0.06l0.12-0.06H867.85z"/>
			<path class="st2" d="M498.43,686.57c-1.05-1.43-2.6-2.6-4.53-3.6c-1.86-0.87-3.97-1.36-6.26-1.36h-40.48v29.63h54.73v-13.02
				c0-2.48-0.25-4.77-0.81-6.63C500.54,689.67,499.61,687.99,498.43,686.57z"/>
			<path class="st0" d="M172.81,711.24h-1.05l-26.53,11.84l9.11-11.84h-16.98c-3.91,0-7.38-0.31-10.66-0.93
				c-3.35-0.68-6.07-1.98-8.31-3.84c-1.92-1.67-3.29-3.84-4.09-6.57c-0.87-2.6-1.24-5.83-1.24-9.67v-21.82H95.27v23.99
				c0,5.21,0.68,10.04,1.92,14.75c1.24,4.71,3.47,8.55,6.63,11.47c1.92,1.86,3.97,3.47,6.14,4.77c2.17,1.3,4.53,2.42,7.13,3.22
				c2.73,0.87,5.52,1.49,8.62,1.86c3.1,0.43,6.51,0.56,10.29,0.56h54.61v-71.35h-17.79V711.24z"/>
			<path class="st1" d="M104.02,653.6c2.68,0,5.02-0.83,6.95-2.41c1.93-1.51,2.96-3.78,2.96-6.74c0-2.68-0.96-4.89-2.89-6.54
				c-1.93-1.65-4.27-2.48-7.02-2.48c-2.82,0-5.16,0.83-7.09,2.48c-1.86,1.65-2.82,3.85-2.82,6.54c0,2.96,0.96,5.23,2.89,6.74
				C98.99,652.78,101.26,653.6,104.02,653.6z"/>
			<path class="st1" d="M131.54,653.6c2.68,0,5.02-0.83,6.95-2.41c1.93-1.51,2.96-3.78,2.96-6.74c0-2.68-0.96-4.89-2.82-6.54
				c-1.86-1.65-4.2-2.48-7.09-2.48c-2.82,0-5.16,0.83-7.09,2.48c-1.86,1.65-2.82,3.85-2.82,6.54c0,2.96,0.96,5.23,2.89,6.74
				C126.52,652.78,128.79,653.6,131.54,653.6z"/>
			<path class="st0" d="M232.71,711.27l0.03-4.2l0.07-10.87v-6.81l0.07-9.5l0.14-9.5l0.14-17.68l0.07-6.88v-2.75
				c0.14-9.91,1.58-10.87,11.29-11.9v-5.09h-42.25v5.09c8.81,1.24,11.08,1.86,11.7,8.05c0.21,1.72,0.28,3.85,0.28,6.61l0.14,5.64
				v77.55h0.45h17.78h3.05l0.11-17.75H232.71z"/>
			<path class="st0" d="M274.41,702.46c-1.17-3.23-1.79-6.88-1.79-10.94c0-2.82,0.48-5.44,1.44-7.84c0.89-2.41,2.55-4.54,4.82-6.54
				c3.37-2.82,7.98-4.27,13.83-4.27c2.96,0,6.06,0.48,9.29,1.58c3.3,1.03,6.26,2.34,8.95,3.85l5.99-16.1
				c-4.34-2.2-8.6-3.92-12.87-5.16c-4.27-1.24-8.81-1.79-13.56-1.79c-4.54,0-8.81,0.62-12.73,1.86c-3.92,1.31-7.36,3.16-10.32,5.57
				c-3.72,3.1-6.74,6.88-9.15,11.42c-2.34,4.61-3.51,9.91-3.51,15.96c0,4.06,0.48,7.91,1.58,11.42c1.03,3.58,2.27,6.81,3.72,9.77
				h-11.29h-2.55h-10.51l-0.11,17.75h10.62h2.55h70.81v-17.75h-40.25C277.23,708.65,275.57,705.76,274.41,702.46z"/>
			<path class="st1" d="M396.48,646.86c2.75,0,5.23-0.83,7.29-2.41c2.06-1.65,3.1-3.99,3.1-7.09c0-2.82-1.03-5.09-2.96-6.81
				c-2-1.72-4.47-2.61-7.43-2.61s-5.44,0.89-7.43,2.61c-2,1.72-2.96,3.99-2.96,6.81c0,3.1,1.03,5.44,3.1,7.09
				C391.25,646.03,393.66,646.86,396.48,646.86z"/>
			<path class="st0" d="M519.63,698.96c0-5.27-0.56-10.04-1.61-14.5c-1.12-4.46-3.04-8.06-5.7-10.97
				c-3.29-3.35-7.07-5.83-11.28-7.31c-4.34-1.49-9.36-2.17-15.19-2.17h-38.68v-6.32h-17.73v53.56h-23.62v-53.56h-17.73v53.56h-0.12
				l-26.47,11.84l9.05-11.84h-11.34v-4.15l0.12-10.91v-6.82l0.06-9.48l0.12-9.48l0.12-17.67l0.06-6.88v-2.79
				c0.12-9.92,1.61-10.85,11.28-11.9v-5.08h-42.21v5.08c8.8,1.24,11.03,1.86,11.65,8.06c0.25,1.74,0.31,3.84,0.31,6.63l0.12,5.64
				v77.55h162.4l16.37-19.14V698.96z M501.9,711.24h-54.73v-29.63h40.48c2.29,0,4.4,0.5,6.26,1.36c1.92,0.99,3.47,2.17,4.53,3.6
				c1.18,1.43,2.11,3.1,2.66,5.02c0.56,1.86,0.81,4.15,0.81,6.63V711.24z"/>
			<path class="st0" d="M585.77,631.15c8.8,1.24,11.1,1.86,11.72,8.06c0.19,1.74,0.25,3.84,0.25,6.63l0.19,5.64v59.75l-0.93,0.19
				l-26.53,11.84l9.24-12.03h-18.53v-45.19l0.06-13.33l0.12-6.88v-2.79c0.12-9.92,1.55-10.85,11.28-11.9v-5.08h-42.28v5.08
				c8.8,1.24,11.1,1.86,11.72,8.06c0.19,1.74,0.25,3.84,0.25,6.63l0.12,5.64v59.75l-0.06,0.19l-26.53,11.84l9.24-12.03h-5.45v-1.35
				l-16.37,19.14h58.15v0.06h66.51v-5.14c-8.74-1.18-11.1-1.8-11.72-7.93v-0.06l0.06-8.86l0.06-10.91v-11.1l0.06-5.21l0.12-9.48
				l0.19-17.67l0.06-6.88v-2.79c0.12-9.92,1.55-10.85,11.28-11.9v-5.08h-42.28V631.15z"/>
		</g>
		<path class="st0" d="M201.45,656.63v4.74c-9.03,0.91-10.4,1.82-10.49,11.04v2.65l-0.09,6.39l-0.18,16.42l-0.09,8.85l-0.09,8.85
			l-0.36,10.31l0,0l-16.47,0.49l-0.32-46.1l-0.09-5.2c0-2.65-0.09-4.56-0.27-6.2c-0.64-5.75-2.74-6.29-10.95-7.48v-4.74H201.45z"/>
		<path class="st0" d="M416.4,656.92v4.74c-9.03,0.91-10.4,1.82-10.49,11.04v2.65l-0.09,6.39l-0.18,16.42l-0.09,8.85l-0.09,8.85
			l-0.36,10.31l-0.18,1.73h-16.6v-47.35l-0.09-5.2c0-2.65-0.09-4.56-0.27-6.2c-0.64-5.75-2.74-6.29-10.95-7.48v-4.74H416.4z"/>
	</g>
</g>
</svg>
